<?xml version="1.0" encoding="utf-8"?>
<!-- Generator: Adobe Illustrator 21.0.2, SVG Export Plug-In . SVG Version: 6.00 Build 0)  -->
<svg version="1.1" id="Layer_1" xmlns="http://www.w3.org/2000/svg" xmlns:xlink="http://www.w3.org/1999/xlink" x="0px" y="0px"
	 viewBox="0 0 173.4 88.7" style="enable-background:new 0 0 173.4 88.7;" xml:space="preserve">
<style type="text/css">
	.st0{fill:#FFFFFF;}
</style>
<path class="st0" d="M84.1,2.2c2.3,0.1,4.7,0.2,7,0.4c9.8,0.7,19.4,2.5,28.4,6.8c4,1.9,7.6,4.3,10.3,7.9c2.6,3.5,3.2,7.2,1.4,11.3
	c-2.8,6.3-7.5,10.6-13.6,13.5c-5.6,2.7-11.6,4-17.8,4.7c-7,0.8-14,0.7-21,0.2c-0.5,0-0.9-0.1-1.5-0.2c7.5-14.3,17.2-27,27.3-39.5
	c-0.3,0.2-0.5,0.4-0.8,0.6c-12.4,10.5-23,22.6-31.4,36.6c-0.8,1.3-1.5,1.7-3,1.4c-3.4-0.7-6.8-1.3-10.4-2
	C71.9,29.6,86,17.1,101.9,6.6c-0.3,0.1-0.7,0.3-1,0.4c-11.2,5.2-21.6,11.9-31.2,19.6c-5.7,4.6-11.1,9.5-16.7,14.2
	c-0.5,0.4-0.9,0.5-1.5,0.3c-4.4-1.8-8.5-4-12.1-7.2c-2.3-2.1-4.3-4.6-5-7.8c-0.8-3.2,0.1-6.1,2-8.7c2.6-3.5,6.1-5.8,10-7.7
	c6.3-3.1,13-4.9,19.9-6.1C71.6,2.8,77,2.4,82.4,2.3c0.2,0,0.5-0.1,0.7-0.1C83.4,2.2,83.7,2.2,84.1,2.2z M100.3,5.2
	c0-0.1,0-0.1,0-0.2c-0.4-0.1-0.9-0.1-1.3-0.2c-2.8-0.2-5.7-0.5-8.5-0.6c-9.1-0.4-18.2-0.1-27.2,2c-5,1.2-9.8,2.8-14,5.9
	c-3.1,2.3-5.6,5-6.9,8.7c-0.9,2.6-0.2,4.9,2.1,6.5c1,0.7,2.1,1.1,3.2,1.6c1.1,0.5,2.2,0.5,3.3-0.3c0.5-0.4,1.1-0.6,1.6-0.9
	C65.7,20.2,79,13.4,92.9,8C95.4,7,97.8,6.1,100.3,5.2z M91.9,36.5c0.1,0.1,0.1,0.3,0.2,0.4c1,0,2.1,0.2,3.1,0.1
	c6.9-0.4,13.5-1.9,19.8-4.6c2.8-1.2,5.5-2.7,7.5-5c1.9-2.2,2.6-4.6,1.6-7.5c-2.6-7.4-8.4-10.9-15.6-12.5c-0.2-0.1-0.7,0.2-0.9,0.5
	c-0.6,0.9-1.1,1.8-1.6,2.7c-3,4.9-6.1,9.8-8.9,14.8C95.2,29,93.7,32.8,91.9,36.5z"/>
<path class="st0" d="M12.6,87.8c-2.9,0-5.6,0-8.4,0c0-0.4-0.1-0.7-0.1-1.1c0-4.4,0-8.9,0-13.3c0-0.5,0-1.1-0.1-1.6
	c-0.2-1.3-0.9-1.9-2.2-2c-0.6,0-1.2-0.1-1.8-0.2C0.5,67.3,2,66,4.2,66c2.3,0,4.6,0,6.8,0c0.7,0,1,0.2,0.9,0.9c0,0.7,0,1.4,0.1,2.1
	c2-2.2,4.4-3.5,7.4-3.6c3,0,5.6,0.8,7.2,3.7c0.4-0.4,0.7-0.6,1-0.9c2.6-2.6,5.8-3.3,9.2-2.5c3.1,0.7,5,3,5.1,6.4
	c0.2,5,0.1,9.9,0.1,14.9c0,0.5-0.1,0.7-0.7,0.7c-2.3,0-4.7,0-7,0c-0.8,0-0.7-0.5-0.7-1c0-3.4,0-6.8,0-10.2c0-0.6,0-1.2-0.1-1.8
	c-0.1-1.4-1-2.6-2.3-2.8c-1.6-0.3-3,0.4-3.5,1.9c-0.3,1-0.5,2.1-0.5,3.2c-0.1,3.2,0,6.5,0,9.7c0,0.8-0.2,1.1-1.1,1.1
	c-2.4-0.1-4.9,0-7.4,0c0-0.4-0.1-0.8-0.1-1.2c0-3.8,0-7.6,0-11.4c0-2-1-3.2-2.6-3.3c-1.6-0.1-3,1-3.4,2.8c-0.1,0.6-0.2,1.2-0.2,1.8
	c0,3.4,0,6.8,0,10.2C12.6,87,12.6,87.3,12.6,87.8z"/>
<path class="st0" d="M132.1,87.7c0-0.7-0.1-1.4-0.1-2.2c-0.4,0.3-0.6,0.5-0.7,0.7c-2.2,2.8-8,2.9-10.1-1.3c-1.5-3-1.7-6.2-0.5-9.3
	c1.5-3.9,6.5-5.3,10-2.8c0.3,0.2,0.5,0.4,0.9,0.7c0-1.5,0.2-3-0.1-4.3c-0.1-0.7-1-1.3-1.7-2.2c0.1-0.5,0.7-1,1.6-1
	c2.1,0,4.2,0,6.3,0c0,7.3,0,14.5,0,21.8C135.9,87.7,134.1,87.7,132.1,87.7z M131.8,80c-0.2-0.7-0.3-1.6-0.7-2.5
	c-0.5-1.1-1.5-1.6-2.6-1.5c-1.1,0.1-1.9,0.8-2.2,1.9c-0.4,1.3-0.4,2.7,0,4c0.4,1.2,1.3,1.9,2.5,1.9c1.1,0,2.2-0.7,2.6-1.8
	C131.5,81.5,131.6,80.9,131.8,80z"/>
<path class="st0" d="M73.9,87.8c-2,0-3.9,0-5.9,0c0-0.4-0.1-0.8-0.1-1.2c0-5,0-10,0-15c0-0.3,0-0.6,0-0.9c0-2-0.2-2.3-2-3
	c0.3-1,1-1.7,2-1.7c2-0.1,4,0,6.1,0c0,2.7,0,5.3,0,8.2c0.5-0.4,0.7-0.6,1-0.8c1.9-1.7,4.2-1.9,6.5-1.4c2.1,0.5,3.3,2,3.4,4
	c0.2,3.9,0.1,7.8,0.2,11.7c0,0.1-0.1,0.1-0.1,0.2c-1.9,0-3.9,0-5.9,0c0-0.4,0-0.7-0.1-1c0-2.4,0-4.7,0-7.1c0-0.5,0-1-0.1-1.4
	c-0.2-1.2-0.9-1.8-2-1.9c-1.2-0.1-2.2,0.5-2.5,1.6c-0.2,0.8-0.3,1.7-0.3,2.6c0,2,0,4.1,0,6.1C74,87,74,87.3,73.9,87.8z"/>
<path class="st0" d="M173.4,87.8c-1.5,0-3.2,0-4.9,0c-0.3,0-0.6-0.4-0.8-0.7c-0.2-0.3-0.2-0.6-0.3-1.1c-0.2,0.1-0.4,0.2-0.6,0.4
	c-2.6,1.9-5.5,2.2-8.5,1.4c-2.5-0.7-3.7-3.2-2.9-5.6c0.4-1.3,1.4-2.1,2.6-2.5c1.9-0.5,3.9-0.9,5.9-1.4c0.7-0.2,1.5-0.4,2.2-0.6
	c0.3-0.1,0.9-0.5,0.9-0.6c-0.1-0.5-0.3-1.2-0.7-1.5c-1.2-0.9-3.6-0.3-4.5,1c-0.2,0.2-0.5,0.5-0.8,0.5c-1.7-0.1-3.4-0.3-5.3-0.5
	c0.2-1.9,1.2-3.2,2.9-3.9c0.9-0.4,1.8-0.7,2.7-0.7c2.3-0.1,4.6-0.1,6.8,0.1c3.3,0.3,4.7,2,4.9,5.7c0.1,1.9,0,3.9,0,5.8
	C173.1,84.9,173.3,86.3,173.4,87.8z M166.9,80.2c-1.6,0.5-3.1,1-4.6,1.5c-0.8,0.3-1.1,1-1,1.8c0.1,0.8,0.7,1.2,1.5,1.3
	C165.6,85.2,167.5,83.2,166.9,80.2z"/>
<path class="st0" d="M46.6,76.4c0.3-2.2,1.6-3.7,3.8-4.3c3.1-0.7,6.3-0.7,9.4-0.1c2.6,0.5,3.9,2.2,4.1,4.9c0.1,1.8,0,3.5,0.1,5.3
	c0.1,1.8,0.2,3.6,0.3,5.5c-1.5,0-3.2,0-4.9,0c-0.3,0-0.6-0.4-0.7-0.7c-0.2-0.3-0.2-0.7-0.4-1.2C56.7,87.3,55,88,53.1,88
	c-1.2,0-2.5,0-3.7-0.3c-2.6-0.6-3.8-2.7-3.3-5.3c0.3-1.4,1.2-2.4,2.5-2.7c2-0.6,4.1-1,6.1-1.5c0.7-0.2,1.5-0.4,2.2-0.6
	c0.3-0.1,0.9-0.5,0.9-0.6c-0.1-0.5-0.3-1.2-0.7-1.5c-1.1-0.9-3.7-0.4-4.5,0.9c-0.2,0.3-0.5,0.6-0.8,0.6
	C50.1,76.8,48.4,76.6,46.6,76.4z M57.8,80.2c-1.6,0.5-3.1,0.9-4.5,1.5c-0.8,0.3-1.2,0.9-1.1,1.8c0.1,0.9,0.8,1.3,1.7,1.4
	C56.6,85.2,58.2,83.3,57.8,80.2z"/>
<path class="st0" d="M116.7,87.7c-2,0-3.9,0-5.9,0c0-0.3-0.1-0.7-0.1-1c0-2.3,0-4.7,0-7c0-0.5,0-1-0.1-1.5c-0.2-1.2-0.8-1.8-1.9-1.9
	c-1.1-0.1-2.2,0.4-2.5,1.5c-0.3,0.8-0.4,1.7-0.4,2.5c-0.1,2.1,0,4.2,0,6.4c0,0.3,0,0.7,0,1.1c-1.9,0-3.8,0-5.7,0
	c-0.2,0-0.4-0.6-0.4-0.9c0-2.3,0-4.7,0-7c0-1.4,0-2.7,0-4.1c0-1.2-0.2-2.2-1.6-2.4c0.2-0.9,0.7-1.3,1.5-1.3c1.9,0,3.8,0,5.8,0
	c0,0.8,0,1.6,0,2.4c0.1,0.1,0.3,0.2,0.4,0.3c0.2-0.3,0.3-0.7,0.6-1c1.9-2,4.2-2.3,6.7-1.8c2.2,0.5,3.5,2.1,3.6,4.2
	C116.8,79.9,116.7,83.8,116.7,87.7z"/>
<path class="st0" d="M154.6,72.4c-0.6,1.4-1.2,2.8-1.8,4c-0.2,0-0.2,0.1-0.3,0.1c-2.6-0.7-3.7-0.1-4.2,2.5c-0.3,1.7-0.3,3.5-0.3,5.2
	c0,1.1,0,2.3,0,3.5c-2.1,0-4,0-6.1,0c0-0.3,0-0.7,0-1c0-3.7,0-7.5,0-11.2c0-0.9-0.1-1.6-1.1-2c-0.1-0.1-0.3-0.4-0.3-0.5
	c0.1-0.3,0.3-0.7,0.6-0.9c0.3-0.2,0.7-0.2,1-0.2c1.5,0,3,0,4.6,0c0.7,0,1,0.2,0.9,0.9c0,0.4,0,0.9,0.1,1.5
	C149.4,71.4,151.7,71,154.6,72.4z"/>
<path class="st0" d="M89.3,72c2,0,4,0,6,0c0,5.2,0,10.4,0,15.7c-2,0-4,0-6,0C89.3,82.5,89.3,77.3,89.3,72z"/>
<path class="st0" d="M92.3,70.2c-0.9-0.4-1.8-0.6-2.5-1.1c-1-0.7-0.9-1.9,0-2.7c1.2-1,3.6-1,4.9,0c0.9,0.8,1,1.9,0.1,2.6
	C94.1,69.6,93.2,69.9,92.3,70.2z"/>
</svg>
