<?xml version="1.0" encoding="utf-8"?>
<!-- Generator: Adobe Illustrator 21.0.2, SVG Export Plug-In . SVG Version: 6.00 Build 0)  -->
<svg version="1.1" id="Layer_1" xmlns="http://www.w3.org/2000/svg" xmlns:xlink="http://www.w3.org/1999/xlink" x="0px" y="0px"
	 viewBox="0 0 576 576" style="enable-background:new 0 0 576 576;" xml:space="preserve">
<style type="text/css">
	.st0{fill:#FFFFFF;}
	.st1{fill:#F78F1E;}
</style>
<circle class="st0" cx="288" cy="287.8" r="288"/>
<path class="st1" d="M291.1,505.7c-4.5-0.9-9.1-1.4-13.5-2.8c-9.2-3.1-18.2-6.6-27.3-10.1c-18.4-7.2-36.7-14.6-55.1-22
	c-17.5-7-35.1-13.7-52.4-21c-20.1-8.4-29.9-34.9-20.7-55c10.9-23.9,22-47.7,33-71.6c1.9-4.1,3.8-8.2,5.6-12.3
	c5.2-11.8,16-17.1,28.2-13c6.2,2.1,12,5.4,17.7,8.7c19,10.9,39.5,17.6,61.2,20.4c28.4,3.6,55.9,0.2,82.2-10.6
	c11.1-4.5,21.4-11.2,32.2-16.4c12-5.9,26.1-5.8,35.3,5.5c4.5,5.4,7.7,11.9,11.2,18c12.7,22.2,25.2,44.5,37.8,66.7
	c3.6,6.4,7.5,12.5,8.9,20c2.5,13.2-3.4,27.8-15.3,34.5c-7.3,4.1-15.2,7.2-22.9,10.4c-24.3,10.2-48.7,20.4-73,30.5
	c-12.2,5.1-24.4,10.4-36.8,15.1c-5.4,2-11.2,2.9-16.8,4.2c-1.1,0.3-2.3,0.5-3.4,0.8C302,505.7,296.5,505.7,291.1,505.7z"/>
<path class="st1" d="M296.8,60c7,1.3,14.1,2.1,20.9,3.9c18.3,4.6,34.5,13.4,48.6,26c19.4,17.4,31.8,38.8,36.7,64.2
	c5.4,27.7,1.7,54.4-12.2,79.1c-17.4,30.9-43.7,50.6-78.3,57.8c-30.1,6.3-58.7,1.3-85-14.9c-21.6-13.3-37.3-31.7-46.8-55.1
	c-10-24.4-11.5-49.5-4.6-74.9c7.2-26.3,21.9-47.5,43.9-63.6c16.9-12.4,35.9-19.4,56.7-21.9c1-0.1,2.1-0.4,3.1-0.6
	C285.4,60,291.1,60,296.8,60z"/>
</svg>
